<!DOCTYPE svg PUBLIC "-//W3C//DTD SVG 1.1//EN" "http://www.w3.org/Graphics/SVG/1.1/DTD/svg11.dtd">
<!-- Uploaded to: SVG Repo, www.svgrepo.com, Transformed by: SVG Repo Mixer Tools -->
<svg height="64px" width="64px" version="1.1" id="Layer_1" xmlns="http://www.w3.org/2000/svg" xmlns:xlink="http://www.w3.org/1999/xlink" viewBox="0 0 393.309 393.309" xml:space="preserve" fill="#000000">
<g id="SVGRepo_bgCarrier" stroke-width="0"/>
<g id="SVGRepo_tracerCarrier" stroke-linecap="round" stroke-linejoin="round"/>
<g id="SVGRepo_iconCarrier"> <circle style="fill:#F0582F;" cx="196.655" cy="196.655" r="196.655"/> <ellipse style="fill:#F6CEB0;" cx="196.655" cy="217.729" rx="88.372" ry="106.408"/> <path style="fill:#393D47;" d="M251.669,17.842c-36.719,0-73.309,0-110.028,0c-11.636,0-13.446,6.335-6.982,15.968 c23.014,35.879,18.554,87.467-13.382,117.204c50.23,0,100.396,0,150.626,0c-31.935-29.737-36.396-81.39-13.382-117.204 C265.115,24.178,263.37,17.842,251.669,17.842z"/> <path style="fill:#4F5565;" d="M140.994,123.152c-4.655,10.343-11.119,19.911-19.653,27.927h150.626 c-8.469-7.952-15.063-17.519-19.653-27.927H140.994z"/> <g> <path style="fill:#333842;" d="M121.535,226.586c0.97-15.903-13.059-15.903-13.059-15.903c-1.422-20.105,1.552-36.655,3.685-45.511 h31.095C126.836,182.756,121.794,224.646,121.535,226.586z"/> <path style="fill:#333842;" d="M284.832,210.618c0,0-14.093,0-13.059,15.968c0,0-4.913-43.507-21.657-61.543h31.095 C283.281,174.028,286.255,190.578,284.832,210.618z"/> </g> <path style="fill:#393D47;" d="M317.285,151.079H76.024c-3.879,0-7.046,3.168-7.046,7.046s3.168,7.046,7.046,7.046h241.325 c3.879,0,7.046-3.168,7.046-7.046C324.331,154.182,321.228,151.079,317.285,151.079z"/> <g> <path style="fill:#EAB48F;" d="M91.475,205.77c0,0,16.226-0.129,10.02,20.816c-6.206,21.01,20.493,25.988,20.493,25.988 s10.731-15.838,0.065-30.513C122.117,221.996,116.04,192.323,91.475,205.77z"/> <path style="fill:#EAB48F;" d="M301.834,205.77c-24.566-13.446-30.578,16.226-30.578,16.226 c-10.667,14.675,0.065,30.513,0.065,30.513s26.634-4.978,20.493-25.988C285.608,205.64,301.834,205.77,301.834,205.77z"/> </g> <g> <path style="fill:#333842;" d="M192.776,263.176c6.335-1.164-7.822,10.408-13.059,14.093c-5.236,3.685-12.283,5.495-18.23,3.168 c-5.43-2.069-10.537-7.434-15.903-5.301c-0.711,3.168,1.293,6.335,3.62,8.663c2.263,2.327,4.913,4.59,5.883,7.758 c1.099,3.491-0.323,7.24-2.65,9.956c-2.327,2.715-5.56,4.461-8.857,6.012c-10.537,4.978-23.596,7.564-33.228,1.164 c-6.077-4.008-9.826-11.507-9.438-18.877c0.259-3.232,1.228-6.594,3.62-8.792c3.038-2.844,7.758-3.297,11.636-2.133 c3.879,1.164,7.37,3.685,10.537,6.4c-3.168-1.293-7.952-2.392-11.313-1.293c-3.297,1.099-6.012,4.331-5.624,7.822 c0.517,5.042,6.4,7.434,11.378,8.339c4.331,0.84,8.857,1.487,13.059,0c4.202-1.487,7.758-5.56,7.111-9.956 c-0.259-1.745-1.164-3.426-2.004-4.913c-2.069-3.814-4.331-7.758-7.952-9.956c-2.457-1.552-5.624-2.392-7.046-4.913 c-2.133-3.943,1.293-8.598,5.042-11.119c13.382-9.244,32.84-8.727,45.576,1.422C174.869,260.59,181.851,265.244,192.776,263.176z"/> <path style="fill:#333842;" d="M200.533,263.176c-6.335-1.164,7.822,10.408,13.059,14.093c5.236,3.685,12.283,5.495,18.23,3.168 c5.43-2.069,10.537-7.434,15.903-5.301c0.711,3.168-1.293,6.335-3.62,8.663c-2.263,2.327-4.913,4.59-5.883,7.758 c-1.099,3.491,0.323,7.24,2.651,9.956c2.327,2.715,5.56,4.461,8.857,6.012c10.537,4.978,23.596,7.564,33.228,1.164 c6.077-4.008,9.826-11.507,9.438-18.877c-0.259-3.232-1.228-6.594-3.62-8.792c-3.038-2.844-7.758-3.297-11.636-2.133 c-3.879,1.164-7.37,3.685-10.537,6.4c3.168-1.293,7.952-2.392,11.313-1.293c3.297,1.099,6.012,4.331,5.624,7.822 c-0.517,5.042-6.4,7.434-11.378,8.339c-4.331,0.84-8.857,1.487-13.059,0c-4.202-1.487-7.758-5.56-7.111-9.956 c0.259-1.745,1.164-3.426,2.004-4.913c2.069-3.814,4.331-7.758,7.952-9.956c2.457-1.552,5.624-2.392,7.046-4.913 c2.133-3.943-1.293-8.598-5.042-11.119c-13.382-9.244-32.84-8.727-45.576,1.422C218.44,260.59,211.523,265.244,200.533,263.176z"/> </g> <g> <polygon style="fill:#4F5565;" points="245.269,312.695 194.651,344.113 245.269,375.467 "/> <polygon style="fill:#4F5565;" points="148.04,375.467 198.659,344.113 148.04,312.695 "/> </g> <path style="fill:#333842;" d="M212.493,328.081h-31.612c-1.745,0-3.168,1.939-3.168,4.331v23.402c0,2.392,1.422,4.331,3.168,4.331 h31.612c1.745,0,3.168-1.939,3.168-4.331v-23.467C215.661,330.02,214.174,328.081,212.493,328.081z"/> </g>
</svg>